#!OML:ASF I:\golf\golf\golf 2\Subject 1\2002-09-07\Subject1.ASF
:FULLY-SPECIFIED
:DEGREES
308
root -1.74485 17.84 -2.27265 63.7356 27.0883 16.9942
lowerback 34.4683 2.95472 8.93679
upperback 16.1532 7.34402 12.9695
thorax -0.415268 3.51905 6.74482
lowerneck -15.0444 -11.3476 -6.95268
upperneck -6.4058 -14.3963 3.22439
head 1.18725 -7.21963 1.30044
rclavicle 3.18055e-015 3.18055e-014
rhumerus 45.2 -1.64664 -31.0468
rradius 19.1112
rwrist 0.708917
rhand -23.8452 2.20738
rfingers 7.12502
rthumb 2.62682 -27.7562
lclavicle 3.18055e-015 3.18055e-014
lhumerus -22.9804 -58.207 101.718
lradius 55.1111
lwrist -14.0565
lhand -48.8669 15.5966
lfingers 7.12502
lthumb -21.5012 44.4232
rfemur -77.7574 -8.01279 11.8689
rtibia 27.5979
rfoot 1.15519 -14.5717
rtoes 16.5713
lfemur -34.4624 -1.99831 -7.13896
ltibia 32.197
lfoot 10.616 -4.39396
ltoes -13.6843
309
root -1.73439 17.8582 -2.2894 63.2817 27.1443 16.9644
lowerback 34.2333 2.96135 8.88529
upperback 16.1006 7.31082 12.9174
thorax -0.385987 3.51069 6.73251
lowerneck -14.9282 -11.3102 -6.81102
upperneck -6.49399 -14.3739 3.24331
head 1.12816 -7.20948 1.29588
rclavicle -4.77083e-014 6.36111e-015
rhumerus 44.0829 -1.22037 -31.7177
rradius 18.9924
rwrist 1.18462
rhand -23.964 1.71702
rfingers 7.12502
rthumb 2.5121 -28.2479
lclavicle -4.77083e-014 6.36111e-015
lhumerus -23.2442 -58.0922 101.901
lradius 55.317
lwrist -13.5369
lhand -48.5189 15.0908
lfingers 7.12502
lthumb -21.1669 43.9553
rfemur -77.2111 -8.04926 11.9278
rtibia 27.4357
rfoot 1.33155 -14.2714
rtoes 14.9039
lfemur -34.5758 -1.88092 -7.31548
ltibia 32.2357
lfoot 10.5501 -4.17544
ltoes -12.8657
310
root -1.72534 17.872 -2.30806 62.846 27.1291 16.978
lowerback 34.0104 2.99748 8.73037
upperback 16.03 7.2881 12.8575
thorax -0.396218 3.5024 6.75815
lowerneck -14.7122 -11.3108 -6.88881
upperneck -6.60321 -14.3715 3.48743
head 1.08457 -7.20181 1.39866
rclavicle -3.49861e-014 -5.56597e-014
rhumerus 42.9227 -0.968187 -32.596
rradius 18.8782
rwrist 1.88152
rhand -24.0069 1.42817
rfingers 7.12502
rthumb 2.47067 -28.5373
lclavicle -3.49861e-014 -5.56597e-014
lhumerus -23.5463 -57.9254 102.135
lradius 55.4816
lwrist -13.2257
lhand -48.0521 14.9448
lfingers 7.12502
lthumb -20.7184 43.8589
rfemur -76.6944 -8.06992 11.8298
rtibia 27.3384
rfoot 1.11672 -14.2492
rtoes 15.5927
lfemur -34.6997 -1.85037 -7.54868
ltibia 32.2629
lfoot 10.3157 -4.21688
ltoes -13.1477
311
root -1.71933 17.8815 -2.32782 62.3901 27.0953 16.9636
lowerback 33.8614 3.05674 8.52326
upperback 15.915 7.29517 12.8058
thorax -0.493225 3.50255 6.8023
lowerneck -14.5208 -11.3077 -6.77936
upperneck -6.72045 -14.395 3.54645
head 1.0117 -7.21453 1.41287
rclavicle 1.08139e-013 -1.11319e-014
rhumerus 41.564 -0.0742001 -32.6308
rradius 19.0031
rwrist 1.66419
rhand -23.8393 1.04688
rfingers 7.12502
rthumb 2.63252 -28.9166
lclavicle 1.08139e-013 -1.11319e-014
lhumerus -23.994 -57.7414 102.474
lradius 55.6273
lwrist -12.9563
lhand -47.5364 14.8536
lfingers 7.12502
lthumb -20.2229 43.8209
rfemur -76.2079 -8.00814 11.6666
rtibia 27.2799
rfoot 0.711906 -14.5971
rtoes 18.3573
lfemur -34.8077 -1.86454 -7.76333
ltibia 32.273
lfoot 9.95224 -4.23033
ltoes -14.1092
312
root -1.714 17.8937 -2.34725 61.8141 27.162 16.837
lowerback 33.7965 3.08303 8.43556
upperback 15.8091 7.3066 12.7649
thorax -0.594064 3.50777 6.79385
lowerneck -14.4167 -11.3223 -6.41053
upperneck -6.9547 -14.4829 3.40577
head 0.877883 -7.26912 1.32115
rclavicle 1.59028e-014 1.27222e-014
rhumerus 39.0247 5.0303 -26.4796
rradius 21.6041
rwrist -6.18621
rhand -23.5383 -0.281104
rfingers 7.12502
rthumb 2.92321 -30.2408
lclavicle 1.59028e-014 1.27222e-014
lhumerus -24.3552 -57.5517 102.716
lradius 55.7785
lwrist -12.4886
lhand -47.0809 14.4705
lfingers 7.12502
lthumb -19.7851 43.4835
rfemur -75.6593 -7.93639 11.7712
rtibia 27.2202
rfoot 0.65998 -14.6501
rtoes 19.0069
lfemur -34.8449 -1.83129 -7.85461
ltibia 32.2748
lfoot 9.53568 -4.02069
ltoes -14.2506
313
root -1.70681 17.908 -2.36574 61.1987 27.2776 16.6822
lowerback 33.7231 3.09601 8.40266
upperback 15.7154 7.31532 12.7309
thorax -0.670591 3.51433 6.76771
lowerneck -14.2618 -11.3467 -6.01119
upperneck -7.29929 -14.5944 3.22529
head 0.694388 -7.3377 1.21943
rclavicle 3.49861e-014 5.56597e-014
rhumerus 38.8702 1.92398 -32.67
rradius 19.2336
rwrist 0.509182
rhand -23.3647 0.66321
rfingers 7.12502
rthumb 3.09088 -29.2941
lclavicle 3.49861e-014 5.56597e-014
lhumerus -24.6095 -57.3816 102.902
lradius 55.9526
lwrist -11.8522
lhand -46.715 14.0586
lfingers 7.12502
lthumb -19.4333 43.1075
rfemur -75.0872 -7.90546 11.9972
rtibia 27.1502
rfoot 0.741855 -14.466
rtoes 18.2938
lfemur -34.8913 -1.68437 -7.94033
ltibia 32.2842
lfoot 9.11225 -3.93781
ltoes -14.0362
314
root -1.70049 17.9185 -2.38498 60.6323 27.3185 16.5663
lowerback 33.6101 3.17446 8.22593
upperback 15.6123 7.35976 12.7068
thorax -0.769557 3.53193 6.81383
lowerneck -14.1431 -11.3261 -5.67075
upperneck -7.42552 -14.6281 3.00863
head 0.588697 -7.3643 1.11247
rclavicle -2.8625e-014 -6.36111e-015
rhumerus 37.6003 2.553 -33.1298
rradius 19.1685
rwrist 0.507531
rhand -22.9714 0.623025
rfingers 7.12502
rthumb 3.47072 -29.3285
lclavicle -2.8625e-014 -6.36111e-015
lhumerus -24.9728 -57.225 103.192
lradius 56.1514
lwrist -11.17
lhand -46.4262 13.6633
lfingers 7.12502
lthumb -19.1555 42.74
rfemur -74.5367 -7.75225 11.8942
rtibia 27.0791
rfoot 0.708021 -14.5866
rtoes 18.3463
lfemur -35.0003 -1.57734 -8.0953
ltibia 32.2999
lfoot 8.5859 -3.84886
ltoes -14.2343
315
root -1.69546 17.9238 -2.40647 60.0401 27.3598 16.4054
lowerback 33.5186 3.25724 8.05865
upperback 15.5249 7.41151 12.6745
thorax -0.856636 3.55342 6.84463
lowerneck -14.2442 -11.2876 -5.56426
upperneck -7.22467 -14.5751 3.02109
head 0.662941 -7.3365 1.09061
rclavicle -1.90833e-014 5.24792e-014
rhumerus 36.2767 3.32311 -33.423
rradius 19.1487
rwrist 0.126897
rhand -22.5021 0.663214
rfingers 7.12502
rthumb 3.92388 -29.2804
lclavicle -1.90833e-014 5.24792e-014
lhumerus -25.3505 -57.062 103.42
lradius 56.3593
lwrist -10.6571
lhand -46.0266 13.4454
lfingers 7.12502
lthumb -18.7712 42.5597
rfemur -73.9796 -7.50627 11.7188
rtibia 27.0179
rfoot -0.163244 -15.3625
rtoes 24.1494
lfemur -35.1059 -1.60981 -8.17223
ltibia 32.3238
lfoot 7.90049 -3.54028
ltoes -14.5317
316
root -1.68963 17.9272 -2.42876 59.4296 27.3745 16.2407
lowerback 33.4313 3.32862 7.91502
upperback 15.4282 7.45576 12.6275
thorax -0.948566 3.57246 6.84974
lowerneck -14.2552 -11.2876 -5.69517
upperneck -7.08078 -14.5396 3.27954
head 0.745093 -7.30921 1.18445
rclavicle -4.45278e-014 4.77083e-015
rhumerus 34.9651 3.77991 -34.0661
rradius 19.0111
rwrist -0.0458574
rhand -22.06 0.744112
rfingers 7.12502
rthumb 4.35087 -29.1912
lclavicle -4.45278e-014 4.77083e-015
lhumerus -25.65 -56.9847 103.6
lradius 56.5135
lwrist -10.2328
lhand -45.4924 13.5019
lfingers 7.12502
lthumb -18.2574 42.6651
rfemur -73.4765 -7.42234 11.8318
rtibia 26.9963
rfoot 0.236632 -15.1247
rtoes 21.9024
lfemur -35.2065 -1.5478 -8.32014
ltibia 32.3582
lfoot 7.21146 -3.254
ltoes -14.2793
317
root -1.684 17.9321 -2.45075 58.819 27.37 16.0815
lowerback 33.3405 3.41213 7.74484
upperback 15.3043 7.51068 12.5858
thorax -1.07475 3.59479 6.86857
lowerneck -14.0873 -11.2813 -5.93615
upperneck -7.05514 -14.4915 3.56296
head 0.76949 -7.27331 1.3184
rclavicle 6.36111e-014 4.13472e-014
rhumerus 33.721 3.11054 -35.7777
rradius 18.5084
rwrist 1.27642
rhand -21.5931 1.02027
rfingers 7.12502
rthumb 4.80164 -28.9053
lclavicle 6.36111e-014 4.13472e-014
lhumerus -25.8843 -56.9464 103.819
lradius 56.6322
lwrist -9.55846
lhand -45.0666 13.3541
lfingers 7.12502
lthumb -17.8477 42.5551
rfemur -73.0107 -7.40315 12.0519
rtibia 27.0248
rfoot 0.223992 -14.9321
rtoes 21.324
lfemur -35.3325 -1.29339 -8.56698
ltibia 32.3922
lfoot 6.42187 -3.27917
ltoes -14.7552
318
root -1.67985 17.9387 -2.47299 58.1282 27.4097 15.8087
lowerback 33.3541 3.5146 7.59893
upperback 15.193 7.60789 12.5662
thorax -1.22904 3.63517 6.88049
lowerneck -14.1773 -11.2619 -6.14248
upperneck -6.92054 -14.4152 3.75889
head 0.860149 -7.2233 1.40499
rclavicle -1.90833e-014 3.18055e-015
rhumerus 32.5043 2.03727 -37.7513
rradius 17.9256
rwrist 2.87814
rhand -21.1532 1.3124
rfingers 7.12502
rthumb 5.22641 -28.6031
lclavicle -1.90833e-014 3.18055e-015
lhumerus -26.073 -56.806 103.993
lradius 56.8122
lwrist -8.76988
lhand -44.7444 12.8721
lfingers 7.12502
lthumb -17.5377 42.1011
rfemur -72.5156 -7.23767 12.2562
rtibia 27.0988
rfoot 0.0653919 -14.8675
rtoes 21.4392
lfemur -35.4475 -0.968704 -8.71816
ltibia 32.4099
lfoot 5.50137 -3.38574
ltoes -15.6799
319
root -1.67544 17.9464 -2.49445 57.3876 27.4116 15.4972
lowerback 33.4125 3.64673 7.41527
upperback 15.1103 7.73146 12.5471
thorax -1.37671 3.68623 6.90309
lowerneck -14.4955 -11.2597 -6.07293
upperneck -6.76156 -14.3944 3.75026
head 0.958202 -7.20971 1.36998
rclavicle -8.90555e-014 -5.725e-014
rhumerus 30.5719 6.20924 -34.1701
rradius 19.4847
rwrist -3.51257
rhand -20.7162 0.41193
rfingers 7.12502
rthumb 5.64839 -29.4928
lclavicle -8.90555e-014 -5.725e-014
lhumerus -26.199 -56.6352 104.081
lradius 56.9749
lwrist -8.20899
lhand -44.2603 12.5049
lfingers 7.12502
lthumb -17.0717 41.7748
rfemur -72.0122 -7.06119 12.5124
rtibia 27.215
rfoot 0.284328 -14.4474
rtoes 18.6111
lfemur -35.5335 -0.690336 -8.87074
ltibia 32.3957
lfoot 4.61841 -3.28591
ltoes -16.041
320
root -1.67073 17.9501 -2.51532 56.6949 27.3451 15.2302
lowerback 33.3782 3.76735 7.18654
upperback 15.0546 7.80976 12.484
thorax -1.45629 3.71819 6.92348
lowerneck -14.9091 -11.2413 -5.9244
upperneck -6.47902 -14.3584 3.69728
head 1.10308 -7.18951 1.30097
rclavicle -3.81667e-014 -8.74653e-014
rhumerus 30.259 -0.977482 -42.0685
rradius 16.584
rwrist 5.71789
rhand -20.8231 1.82744
rfingers 7.12502
rthumb 5.54512 -28.08
lclavicle -3.81667e-014 -8.74653e-014
lhumerus -26.1467 -56.4961 103.998
lradius 57.044
lwrist -7.70219
lhand -43.6925 12.3034
lfingers 7.12502
lthumb -16.5251 41.6197
rfemur -71.5624 -6.94802 12.7797
rtibia 27.3462
rfoot 0.498639 -13.9792
rtoes 15.7651
lfemur -35.6246 -0.531206 -9.06756
ltibia 32.3544
lfoot 3.82288 -3.04617
ltoes -16.0871
321
root -1.66786 17.9508 -2.53658 55.9973 27.2816 14.9432
lowerback 33.3116 3.88464 6.9493
upperback 15.0084 7.87629 12.4122
thorax -1.51233 3.74538 6.94563
lowerneck -15.2045 -11.231 -5.85043
upperneck -6.31751 -14.3301 3.72466
head 1.20194 -7.1712 1.27827
rclavicle 9.54166e-015 -5.56597e-014
rhumerus 29.121 -1.97003 -43.4848
rradius 16.1725
rwrist 5.67127
rhand -20.9066 1.49176
rfingers 7.12502
rthumb 5.46456 -28.4178
lclavicle 9.54166e-015 -5.56597e-014
lhumerus -26.0118 -56.3531 103.845
lradius 57.1586
lwrist -6.72465
lhand -43.4974 11.8081
lfingers 7.12502
lthumb -16.3373 41.1399
rfemur -71.1565 -6.83898 13.075
rtibia 27.5154
rfoot -0.480857 -14.3621
rtoes 22.5119
lfemur -35.7174 -0.284867 -9.26968
ltibia 32.2826
lfoot 3.13066 -2.95568
ltoes -16.265
